<?xml version="1.0" standalone="no"?>
<!DOCTYPE svg PUBLIC "-//W3C//DTD SVG 20010904//EN"
 "http://www.w3.org/TR/2001/REC-SVG-20010904/DTD/svg10.dtd">
<svg version="1.0" xmlns="http://www.w3.org/2000/svg"
 width="78.000000pt" height="75.000000pt" viewBox="0 0 78.000000 75.000000"
 preserveAspectRatio="xMidYMid meet">

<g transform="translate(0.000000,75.000000) scale(0.100000,-0.100000)"
fill="#000000" stroke="none">
<path d="M340 492 c-71 -35 -96 -102 -63 -169 26 -54 95 -87 147 -71 76 24
113 106 80 175 -32 64 -106 93 -164 65z m135 -47 c67 -87 -7 -198 -115 -174
-106 24 -106 186 0 208 56 11 89 2 115 -34z"/>
<path d="M364 425 c-17 -13 -16 -14 19 -8 43 7 49 -8 15 -38 -20 -18 -21 -19
-4 -17 10 2 25 13 33 24 12 19 12 24 -2 38 -20 20 -36 20 -61 1z"/>
<path d="M380 321 c0 -6 5 -13 10 -16 6 -3 10 1 10 9 0 9 -4 16 -10 16 -5 0
-10 -4 -10 -9z"/>
</g>
</svg>
